# xmcd
#
# Track frame offsets:
#	150
#	21310
#	37627
#	51522
#	68000
#	89145
#	105480
#	119365
#	135872
#	146217
#	161400
#
# Disc length: 2355 seconds
#
# Revision: 1
# Processed by: cddbd v1.5.1PL0 Copyright (c) Steve Scherf et al.
# Submitted via: CDex 1.50Beta5
#
DISCID=9209310b
DTITLE=三蔵(関俊彦) - 劇場版幻想魔伝最遊記 Requiem キャラクターソングミニアルバム 〔four songs〕
DYEAR=2002
DGENRE=
TTITLE0=三蔵(関俊彦)/Solitude
TTITLE1=悟空(保志総一朗)/Proud of my loneliness
TTITLE2=悟浄(平田広明)/Crimson
TTITLE3=八戒(石田彰)/生命線…Something in my mind
TTITLE4=三蔵(関俊彦)/Solitude(オリジナルカラオケ)
TTITLE5=悟空(保志総一朗)/Proud of my loneliness(オリジナルカラオケ)
TTITLE6=悟浄(平田広明)/Crimson(オリジナルカラオケ)
TTITLE7=八戒(石田彰)/生命線…Something in my mind(オリジナルカラオケ)
TTITLE8=三蔵(関俊彦)/劇場版BGM「最遊紀」未発表バージョン1
TTITLE9=三蔵(関俊彦)/劇場版BGM「最遊紀」未発表バージョン2
TTITLE10=三蔵(関俊彦)/劇場版BGM「最遊紀」未発表バージョン3
EXTD=
EXTT0=
EXTT1=
EXTT2=
EXTT3=
EXTT4=
EXTT5=
EXTT6=
EXTT7=
EXTT8=
EXTT9=
EXTT10=
PLAYORDER=
